# Rhino

v 0.89999997615814209 0 0
v 0.88342219591140747 -0.17194543778896332 0
v 0.83252096176147461 -0.34191936254501343 0
v 0.74688541889190674 -0.50215756893157959 0
v 0.62973320484161377 -0.64298993349075317 0
v 0.48665434122085571 -0.75707828998565674 0
v 0.32710453867912292 -0.83845251798629761 0
v 0.16166546940803528 -0.88536107540130615 0
v 0 -0.89999997615814209 0
v -0.17194543778896332 -0.88342219591140747 0
v -0.34191936254501343 -0.83252096176147461 0
v -0.50215756893157959 -0.74688541889190674 0
v -0.64298993349075317 -0.62973320484161377 0
v -0.75707828998565674 -0.48665434122085571 0
v -0.83845251798629761 -0.32710453867912292 0
v -0.88536107540130615 -0.16166546940803528 0
v -0.89999997615814209 0 0
v -0.88342219591140747 0.17194543778896332 0
v -0.83252096176147461 0.34191936254501343 0
v -0.74688541889190674 0.50215756893157959 0
v -0.62973320484161377 0.64298993349075317 0
v -0.48665434122085571 0.75707828998565674 0
v -0.32710453867912292 0.83845251798629761 0
v -0.16166546940803528 0.88536107540130615 0
v 0 0.89999997615814209 0
v 0.17194543778896332 0.88342219591140747 0
v 0.34191936254501343 0.83252096176147461 0
v 0.50215756893157959 0.74688541889190674 0
v 0.64298993349075317 0.62973320484161377 0
v 0.75707828998565674 0.48665434122085571 0
v 0.83845251798629761 0.32710453867912292 0
v 0.88536107540130615 0.16166546940803528 0
v 0 0 0
v 0 -0.45899999141693115 0
v 0.45899999141693115 0 0
v 0.45899999141693115 -0.45899999141693115 0
v -0.45899999141693115 0 0
v -0.45899999141693115 -0.45899999141693115 0
v 0 0.45899999141693115 0
v -0.45899999141693115 0.45899999141693115 0
v 0.45899999141693115 0.45899999141693115 0
v 0.89999997615814209 0 -0.10000000149011612
v 0.88342219591140747 -0.17194543778896332 -0.10000000149011612
v 0.83252096176147461 -0.34191936254501343 -0.10000000149011612
v 0.74688541889190674 -0.50215756893157959 -0.10000000149011612
v 0.62973320484161377 -0.64298993349075317 -0.10000000149011612
v 0.48665434122085571 -0.75707828998565674 -0.10000000149011612
v 0.32710453867912292 -0.83845251798629761 -0.10000000149011612
v 0.16166546940803528 -0.88536107540130615 -0.10000000149011612
v 0 -0.89999997615814209 -0.10000000149011612
v -0.17194543778896332 -0.88342219591140747 -0.10000000149011612
v -0.34191936254501343 -0.83252096176147461 -0.10000000149011612
v -0.50215756893157959 -0.74688541889190674 -0.10000000149011612
v -0.64298993349075317 -0.62973320484161377 -0.10000000149011612
v -0.75707828998565674 -0.48665434122085571 -0.10000000149011612
v -0.83845251798629761 -0.32710453867912292 -0.10000000149011612
v -0.88536107540130615 -0.16166546940803528 -0.10000000149011612
v -0.89999997615814209 0 -0.10000000149011612
v -0.88342219591140747 0.17194543778896332 -0.10000000149011612
v -0.83252096176147461 0.34191936254501343 -0.10000000149011612
v -0.74688541889190674 0.50215756893157959 -0.10000000149011612
v -0.62973320484161377 0.64298993349075317 -0.10000000149011612
v -0.48665434122085571 0.75707828998565674 -0.10000000149011612
v -0.32710453867912292 0.83845251798629761 -0.10000000149011612
v -0.16166546940803528 0.88536107540130615 -0.10000000149011612
v 0 0.89999997615814209 -0.10000000149011612
v 0.17194543778896332 0.88342219591140747 -0.10000000149011612
v 0.34191936254501343 0.83252096176147461 -0.10000000149011612
v 0.50215756893157959 0.74688541889190674 -0.10000000149011612
v 0.64298993349075317 0.62973320484161377 -0.10000000149011612
v 0.75707828998565674 0.48665434122085571 -0.10000000149011612
v 0.83845251798629761 0.32710453867912292 -0.10000000149011612
v 0.88536107540130615 0.16166546940803528 -0.10000000149011612
v 0 0 -0.10000000149011612
v 0 -0.45899999141693115 -0.10000000149011612
v 0.45899999141693115 0 -0.10000000149011612
v 0.45899999141693115 -0.45899999141693115 -0.10000000149011612
v -0.45899999141693115 0 -0.10000000149011612
v -0.45899999141693115 -0.45899999141693115 -0.10000000149011612
v 0 0.45899999141693115 -0.10000000149011612
v -0.45899999141693115 0.45899999141693115 -0.10000000149011612
v 0.45899999141693115 0.45899999141693115 -0.10000000149011612
v 0.89999997615814209 0 0
v 0.89999997615814209 0 -0.10000000149011612
v 0.88342219591140747 -0.17194543778896332 0
v 0.88342219591140747 -0.17194543778896332 -0.10000000149011612
v 0.83252096176147461 -0.34191936254501343 0
v 0.83252096176147461 -0.34191936254501343 -0.10000000149011612
v 0.74688541889190674 -0.50215756893157959 0
v 0.74688541889190674 -0.50215756893157959 -0.10000000149011612
v 0.62973320484161377 -0.64298993349075317 0
v 0.62973320484161377 -0.64298993349075317 -0.10000000149011612
v 0.48665434122085571 -0.75707828998565674 0
v 0.48665434122085571 -0.75707828998565674 -0.10000000149011612
v 0.32710453867912292 -0.83845251798629761 0
v 0.32710453867912292 -0.83845251798629761 -0.10000000149011612
v 0.16166546940803528 -0.88536107540130615 0
v 0.16166546940803528 -0.88536107540130615 -0.10000000149011612
v 0 -0.89999997615814209 0
v 0 -0.89999997615814209 -0.10000000149011612
v -0.17194543778896332 -0.88342219591140747 0
v -0.17194543778896332 -0.88342219591140747 -0.10000000149011612
v -0.34191936254501343 -0.83252096176147461 0
v -0.34191936254501343 -0.83252096176147461 -0.10000000149011612
v -0.50215756893157959 -0.74688541889190674 0
v -0.50215756893157959 -0.74688541889190674 -0.10000000149011612
v -0.64298993349075317 -0.62973320484161377 0
v -0.64298993349075317 -0.62973320484161377 -0.10000000149011612
v -0.75707828998565674 -0.48665434122085571 0
v -0.75707828998565674 -0.48665434122085571 -0.10000000149011612
v -0.83845251798629761 -0.32710453867912292 0
v -0.83845251798629761 -0.32710453867912292 -0.10000000149011612
v -0.88536107540130615 -0.16166546940803528 0
v -0.88536107540130615 -0.16166546940803528 -0.10000000149011612
v -0.89999997615814209 0 0
v -0.89999997615814209 0 -0.10000000149011612
v -0.88342219591140747 0.17194543778896332 0
v -0.88342219591140747 0.17194543778896332 -0.10000000149011612
v -0.83252096176147461 0.34191936254501343 0
v -0.83252096176147461 0.34191936254501343 -0.10000000149011612
v -0.74688541889190674 0.50215756893157959 0
v -0.74688541889190674 0.50215756893157959 -0.10000000149011612
v -0.62973320484161377 0.64298993349075317 0
v -0.62973320484161377 0.64298993349075317 -0.10000000149011612
v -0.48665434122085571 0.75707828998565674 0
v -0.48665434122085571 0.75707828998565674 -0.10000000149011612
v -0.32710453867912292 0.83845251798629761 0
v -0.32710453867912292 0.83845251798629761 -0.10000000149011612
v -0.16166546940803528 0.88536107540130615 0
v -0.16166546940803528 0.88536107540130615 -0.10000000149011612
v 0 0.89999997615814209 0
v 0 0.89999997615814209 -0.10000000149011612
v 0.17194543778896332 0.88342219591140747 0
v 0.17194543778896332 0.88342219591140747 -0.10000000149011612
v 0.34191936254501343 0.83252096176147461 0
v 0.34191936254501343 0.83252096176147461 -0.10000000149011612
v 0.50215756893157959 0.74688541889190674 0
v 0.50215756893157959 0.74688541889190674 -0.10000000149011612
v 0.64298993349075317 0.62973320484161377 0
v 0.64298993349075317 0.62973320484161377 -0.10000000149011612
v 0.75707828998565674 0.48665434122085571 0
v 0.75707828998565674 0.48665434122085571 -0.10000000149011612
v 0.83845251798629761 0.32710453867912292 0
v 0.83845251798629761 0.32710453867912292 -0.10000000149011612
v 0.88536107540130615 0.16166546940803528 0
v 0.88536107540130615 0.16166546940803528 -0.10000000149011612
v 0.89999997615814209 0 0
v 0.89999997615814209 0 -0.10000000149011612
vn 0 0 1
vn 0 0 1
vn 0 0 1
vn 0 0 1
vn 0 0 1
vn 0 0 1
vn 0 0 1
vn 0 0 1
vn 0 0 1
vn 0 0 1
vn 0 0 1
vn 0 0 1
vn 0 0 1
vn 0 0 1
vn 0 0 1
vn 0 0 1
vn 0 0 1
vn 0 0 1
vn 0 0 1
vn 0 0 1
vn 0 0 1
vn 0 0 1
vn 0 0 1
vn 0 0 1
vn 0 0 1
vn 0 0 1
vn 0 0 1
vn 0 0 1
vn 0 0 1
vn 0 0 1
vn 0 0 1
vn 0 0 1
vn 0 0 1
vn 0 0 1
vn 0 0 1
vn 0 0 1
vn 0 0 1
vn 0 0 1
vn 0 0 1
vn 0 0 1
vn 0 0 1
vn 0 0 -1
vn 0 0 -1
vn 0 0 -1
vn 0 0 -1
vn 0 0 -1
vn 0 0 -1
vn 0 0 -1
vn 0 0 -1
vn 0 0 -1
vn 0 0 -1
vn 0 0 -1
vn 0 0 -1
vn 0 0 -1
vn 0 0 -1
vn 0 0 -1
vn 0 0 -1
vn 0 0 -1
vn 0 0 -1
vn 0 0 -1
vn 0 0 -1
vn 0 0 -1
vn 0 0 -1
vn 0 0 -1
vn 0 0 -1
vn 0 0 -1
vn 0 0 -1
vn 0 0 -1
vn 0 0 -1
vn 0 0 -1
vn 0 0 -1
vn 0 0 -1
vn 0 0 -1
vn 0 0 -1
vn 0 0 -1
vn 0 0 -1
vn 0 0 -1
vn 0 0 -1
vn 0 0 -1
vn 0 0 -1
vn 0 0 -1
vn 0 0 -1
vn 1 0 0
vn 1 0 0
vn 0.98158019781112671 -0.19105048477649689 0
vn 0.98158019781112671 -0.19105048477649689 0
vn 0.92502325773239136 -0.37991040945053101 0
vn 0.92502325773239136 -0.37991040945053101 0
vn 0.82987266778945923 -0.55795282125473022 0
vn 0.82987266778945923 -0.55795282125473022 0
vn 0.69970357418060303 -0.71443325281143188 0
vn 0.69970357418060303 -0.71443325281143188 0
vn 0.54072701930999756 -0.8411981463432312 0
vn 0.54072701930999756 -0.8411981463432312 0
vn 0.36344948410987854 -0.93161392211914063 0
vn 0.36344948410987854 -0.93161392211914063 0
vn 0.17962829768657684 -0.98373454809188843 0
vn 0.17962829768657684 -0.98373454809188843 0
vn 0 -1 0
vn 0 -1 0
vn -0.19105048477649689 -0.98158019781112671 0
vn -0.19105048477649689 -0.98158019781112671 0
vn -0.37991040945053101 -0.92502325773239136 0
vn -0.37991040945053101 -0.92502325773239136 0
vn -0.55795282125473022 -0.82987266778945923 0
vn -0.55795282125473022 -0.82987266778945923 0
vn -0.71443325281143188 -0.69970357418060303 0
vn -0.71443325281143188 -0.69970357418060303 0
vn -0.8411981463432312 -0.54072701930999756 0
vn -0.8411981463432312 -0.54072701930999756 0
vn -0.93161392211914063 -0.36344948410987854 0
vn -0.93161392211914063 -0.36344948410987854 0
vn -0.98373454809188843 -0.17962829768657684 0
vn -0.98373454809188843 -0.17962829768657684 0
vn -1 0 0
vn -1 0 0
vn -0.98158019781112671 0.19105048477649689 0
vn -0.98158019781112671 0.19105048477649689 0
vn -0.92502325773239136 0.37991040945053101 0
vn -0.92502325773239136 0.37991040945053101 0
vn -0.82987266778945923 0.55795282125473022 0
vn -0.82987266778945923 0.55795282125473022 0
vn -0.69970357418060303 0.71443325281143188 0
vn -0.69970357418060303 0.71443325281143188 0
vn -0.54072701930999756 0.8411981463432312 0
vn -0.54072701930999756 0.8411981463432312 0
vn -0.36344948410987854 0.93161392211914063 0
vn -0.36344948410987854 0.93161392211914063 0
vn -0.17962829768657684 0.98373454809188843 0
vn -0.17962829768657684 0.98373454809188843 0
vn 0 1 0
vn 0 1 0
vn 0.19105048477649689 0.98158019781112671 0
vn 0.19105048477649689 0.98158019781112671 0
vn 0.37991040945053101 0.92502325773239136 0
vn 0.37991040945053101 0.92502325773239136 0
vn 0.55795282125473022 0.82987266778945923 0
vn 0.55795282125473022 0.82987266778945923 0
vn 0.71443325281143188 0.69970357418060303 0
vn 0.71443325281143188 0.69970357418060303 0
vn 0.8411981463432312 0.54072701930999756 0
vn 0.8411981463432312 0.54072701930999756 0
vn 0.93161392211914063 0.36344948410987854 0
vn 0.93161392211914063 0.36344948410987854 0
vn 0.98373454809188843 0.17962829768657684 0
vn 0.98373454809188843 0.17962829768657684 0
vn 1 0 0
vn 1 0 0
f 36//36 35//35 33//33 34//34
f 34//34 33//33 37//37 38//38
f 33//33 39//39 40//40 37//37
f 35//35 41//41 39//39 33//33
f 40//40 20//20 19//19
f 18//18 37//37 19//19
f 18//18 17//17 37//37
f 20//20 40//40 21//21
f 24//24 23//23 39//39
f 40//40 23//23 22//22
f 23//23 40//40 39//39
f 21//21 40//40 22//22
f 40//40 19//19 37//37
f 14//14 38//38 15//15
f 13//13 38//38 14//14
f 38//38 13//13 12//12
f 37//37 16//16 15//15
f 15//15 38//38 37//37
f 11//11 34//34 38//38
f 10//10 34//34 11//11
f 34//34 10//10 9//9
f 12//12 11//11 38//38
f 37//37 17//17 16//16
f 24//24 39//39 25//25
f 39//39 27//27 26//26
f 27//27 39//39 41//41
f 31//31 41//41 35//35
f 41//41 28//28 27//27
f 25//25 39//39 26//26
f 29//29 41//41 30//30
f 35//35 32//32 31//31
f 31//31 30//30 41//41
f 28//28 41//41 29//29
f 1//1 32//32 35//35
f 7//7 36//36 34//34
f 8//8 7//7 34//34
f 6//6 36//36 7//7
f 6//6 5//5 36//36
f 9//9 8//8 34//34
f 35//35 36//36 3//3
f 5//5 4//4 36//36
f 4//4 3//3 36//36
f 35//35 3//3 2//2
f 35//35 2//2 1//1
f 77//77 75//75 74//74 76//76
f 75//75 79//79 78//78 74//74
f 74//74 78//78 81//81 80//80
f 76//76 74//74 80//80 82//82
f 61//61 81//81 60//60
f 59//59 60//60 78//78
f 59//59 78//78 58//58
f 62//62 81//81 61//61
f 65//65 80//80 64//64
f 81//81 63//63 64//64
f 64//64 80//80 81//81
f 62//62 63//63 81//81
f 81//81 78//78 60//60
f 56//56 79//79 55//55
f 54//54 55//55 79//79
f 79//79 53//53 54//54
f 57//57 78//78 56//56
f 56//56 78//78 79//79
f 52//52 79//79 75//75
f 51//51 52//52 75//75
f 75//75 50//50 51//51
f 53//53 79//79 52//52
f 78//78 57//57 58//58
f 65//65 66//66 80//80
f 80//80 67//67 68//68
f 68//68 82//82 80//80
f 72//72 76//76 82//82
f 82//82 68//68 69//69
f 66//66 67//67 80//80
f 70//70 71//71 82//82
f 76//76 72//72 73//73
f 72//72 82//82 71//71
f 69//69 70//70 82//82
f 42//42 76//76 73//73
f 48//48 75//75 77//77
f 49//49 75//75 48//48
f 47//47 48//48 77//77
f 47//47 77//77 46//46
f 50//50 75//75 49//49
f 76//76 44//44 77//77
f 46//46 77//77 45//45
f 45//45 77//77 44//44
f 76//76 43//43 44//44
f 76//76 42//42 43//43
f 85//85 86//86 84//84 83//83
f 89//89 90//90 88//88 87//87
f 87//87 88//88 86//86 85//85
f 93//93 94//94 92//92 91//91
f 97//97 98//98 96//96 95//95
f 95//95 96//96 94//94 93//93
f 91//91 92//92 90//90 89//89
f 101//101 102//102 100//100 99//99
f 105//105 106//106 104//104 103//103
f 103//103 104//104 102//102 101//101
f 109//109 110//110 108//108 107//107
f 113//113 114//114 112//112 111//111
f 111//111 112//112 110//110 109//109
f 107//107 108//108 106//106 105//105
f 99//99 100//100 98//98 97//97
f 115//115 116//116 114//114 113//113
f 119//119 120//120 118//118 117//117
f 123//123 124//124 122//122 121//121
f 121//121 122//122 120//120 119//119
f 127//127 128//128 126//126 125//125
f 131//131 132//132 130//130 129//129
f 129//129 130//130 128//128 127//127
f 125//125 126//126 124//124 123//123
f 135//135 136//136 134//134 133//133
f 139//139 140//140 138//138 137//137
f 137//137 138//138 136//136 135//135
f 143//143 144//144 142//142 141//141
f 147//147 148//148 146//146 145//145
f 145//145 146//146 144//144 143//143
f 141//141 142//142 140//140 139//139
f 133//133 134//134 132//132 131//131
f 117//117 118//118 116//116 115//115
