# Rhino

v 1.2786411046981812 -1.5238251686096191 0.69999998807907104
v 1.2786411046981812 -1.5238251686096191 1.6000000238418579
v 1.2786411046981812 -1.5238251686096191 2.5
v 1.3405447006225586 -1.339751124382019 0.69999998807907104
v 1.3405447006225586 -1.339751124382019 1.6000000238418579
v 1.3405447006225586 -1.339751124382019 2.5
v 1.3941047191619873 -1.1544198989868164 0.69999998807907104
v 1.3941047191619873 -1.1544198989868164 1.6000000238418579
v 1.3941047191619873 -1.1544198989868164 2.5
v 1.4398934841156006 -0.96589738130569458 0.69999998807907104
v 1.4398934841156006 -0.96589738130569458 1.6000000238418579
v 1.4398934841156006 -0.96589738130569458 2.5
v 1.4776588678359985 -0.77467209100723267 0.69999998807907104
v 1.4776588678359985 -0.77467209100723267 1.6000000238418579
v 1.4776588678359985 -0.77467209100723267 2.5
v 1.5071817636489868 -0.58132141828536987 0.69999998807907104
v 1.5071817636489868 -0.58132141828536987 1.6000000238418579
v 1.5071817636489868 -0.58132141828536987 2.5
v 1.5282307863235474 -0.3872222900390625 0.69999998807907104
v 1.5282307863235474 -0.3872222900390625 1.6000000238418579
v 1.5282307863235474 -0.3872222900390625 2.5
v 1.5408430099487305 -0.19202530384063721 0.69999998807907104
v 1.5408430099487305 -0.19202530384063721 1.6000000238418579
v 1.5408430099487305 -0.19202530384063721 2.5
v 1.5449469089508057 0.0037178865168243647 0.69999998807907104
v 1.5449469089508057 0.0037178865168243647 1.6000000238418579
v 1.5449469089508057 0.0037178865168243647 2.5
v 1.5405192375183105 0.19945049285888672 0.69999998807907104
v 1.5405192375183105 0.19945049285888672 1.6000000238418579
v 1.5405192375183105 0.19945049285888672 2.5
v 1.5275850296020508 0.39461582899093628 0.69999998807907104
v 1.5275850296020508 0.39461582899093628 1.6000000238418579
v 1.5275850296020508 0.39461582899093628 2.5
v 1.5062177181243896 0.58866250514984131 0.69999998807907104
v 1.5062177181243896 0.58866250514984131 1.6000000238418579
v 1.5062177181243896 0.58866250514984131 2.5
v 1.476537823677063 0.78104978799819946 0.69999998807907104
v 1.476537823677063 0.78104978799819946 1.6000000238418579
v 1.476537823677063 0.78104978799819946 2.5
v 1.4387112855911255 0.97125232219696045 0.69999998807907104
v 1.4387112855911255 0.97125232219696045 1.6000000238418579
v 1.4387112855911255 0.97125232219696045 2.5
v 1.3929471969604492 1.1587649583816528 0.69999998807907104
v 1.3929471969604492 1.1587649583816528 1.6000000238418579
v 1.3929471969604492 1.1587649583816528 2.5
v 1.339495062828064 1.343106746673584 0.69999998807907104
v 1.339495062828064 1.343106746673584 1.6000000238418579
v 1.339495062828064 1.343106746673584 2.5
v 1.2786411046981812 1.5238251686096191 0.69999998807907104
v 1.2786411046981812 1.5238251686096191 1.6000000238418579
v 1.2786411046981812 1.5238251686096191 2.5
vn -0.94072651863098145 0.33916601538658142 0
vn -0.94072651863098145 0.33916601538658142 0
vn -0.94072651863098145 0.33916601538658142 0
vn -0.95450478792190552 0.29819566011428833 0
vn -0.95450478792190552 0.29819566011428833 0
vn -0.95450478792190552 0.29819566011428833 0
vn -0.96642589569091797 0.25694549083709717 0
vn -0.96642589569091797 0.25694549083709717 0
vn -0.96642589569091797 0.25694549083709717 0
vn -0.97661733627319336 0.21498499810695648 0
vn -0.97661733627319336 0.21498499810695648 0
vn -0.97661733627319336 0.21498499810695648 0
vn -0.98502302169799805 0.17242296040058136 0
vn -0.98502302169799805 0.17242296040058136 0
vn -0.98502302169799805 0.17242296040058136 0
vn -0.99159407615661621 0.12938785552978516 0
vn -0.99159407615661621 0.12938785552978516 0
vn -0.99159407615661621 0.12938785552978516 0
vn -0.99627906084060669 0.086186163127422333 0
vn -0.99627906084060669 0.086186163127422333 0
vn -0.99627906084060669 0.086186163127422333 0
vn -0.99908620119094849 0.042740114033222198 0
vn -0.99908620119094849 0.042740114033222198 0
vn -0.99908620119094849 0.042740114033222198 0
vn -0.99999964237213135 -0.00082751014269888401 0
vn -0.99999964237213135 -0.00082751014269888401 0
vn -0.99999964237213135 -0.00082751014269888401 0
vn -0.99901413917541504 -0.044392775744199753 0
vn -0.99901413917541504 -0.044392775744199753 0
vn -0.99901413917541504 -0.044392775744199753 0
vn -0.99613529443740845 -0.087831780314445496 0
vn -0.99613529443740845 -0.087831780314445496 0
vn -0.99613529443740845 -0.087831780314445496 0
vn -0.9913794994354248 -0.13102181255817413 0
vn -0.9913794994354248 -0.13102181255817413 0
vn -0.9913794994354248 -0.13102181255817413 0
vn -0.98477345705032349 -0.17384248971939087 0
vn -0.98477345705032349 -0.17384248971939087 0
vn -0.98477345705032349 -0.17384248971939087 0
vn -0.97635424137115479 -0.21617689728736877 0
vn -0.97635424137115479 -0.21617689728736877 0
vn -0.97635424137115479 -0.21617689728736877 0
vn -0.96616828441619873 -0.25791257619857788 0
vn -0.96616828441619873 -0.25791257619857788 0
vn -0.96616828441619873 -0.25791257619857788 0
vn -0.95427113771438599 -0.29894253611564636 0
vn -0.95427113771438599 -0.29894253611564636 0
vn -0.95427113771438599 -0.29894253611564636 0
vn -0.94072651863098145 -0.33916601538658142 0
vn -0.94072651863098145 -0.33916601538658142 0
vn -0.94072651863098145 -0.33916601538658142 0
f 5//5 4//4 1//1
f 6//6 5//5 2//2
f 8//8 7//7 4//4
f 9//9 8//8 5//5
f 11//11 10//10 7//7
f 12//12 11//11 8//8
f 14//14 13//13 10//10
f 15//15 14//14 11//11
f 17//17 16//16 13//13
f 18//18 17//17 14//14
f 20//20 19//19 16//16
f 21//21 20//20 17//17
f 23//23 22//22 19//19
f 24//24 23//23 20//20
f 26//26 25//25 22//22
f 27//27 26//26 23//23
f 29//29 28//28 25//25
f 30//30 29//29 26//26
f 32//32 31//31 28//28
f 33//33 32//32 29//29
f 35//35 34//34 31//31
f 36//36 35//35 32//32
f 38//38 37//37 34//34
f 39//39 38//38 35//35
f 41//41 40//40 37//37
f 42//42 41//41 38//38
f 44//44 43//43 40//40
f 45//45 44//44 41//41
f 47//47 46//46 43//43
f 48//48 47//47 44//44
f 50//50 49//49 46//46
f 51//51 50//50 47//47
f 5//5 1//1 2//2
f 6//6 2//2 3//3
f 8//8 4//4 5//5
f 9//9 5//5 6//6
f 11//11 7//7 8//8
f 12//12 8//8 9//9
f 14//14 10//10 11//11
f 15//15 11//11 12//12
f 17//17 13//13 14//14
f 18//18 14//14 15//15
f 20//20 16//16 17//17
f 21//21 17//17 18//18
f 23//23 19//19 20//20
f 24//24 20//20 21//21
f 26//26 22//22 23//23
f 27//27 23//23 24//24
f 29//29 25//25 26//26
f 30//30 26//26 27//27
f 32//32 28//28 29//29
f 33//33 29//29 30//30
f 35//35 31//31 32//32
f 36//36 32//32 33//33
f 38//38 34//34 35//35
f 39//39 35//35 36//36
f 41//41 37//37 38//38
f 42//42 38//38 39//39
f 44//44 40//40 41//41
f 45//45 41//41 42//42
f 47//47 43//43 44//44
f 48//48 44//44 45//45
f 50//50 46//46 47//47
f 51//51 47//47 48//48
